<svg xmlns="http://www.w3.org/2000/svg" xmlns:xlink="http://www.w3.org/1999/xlink" viewBox="0 0 500 500"><defs><style>.cls-1{fill:url(#linear-gradient);}.cls-2{fill:url(#linear-gradient-2);}.cls-3{mask:url(#mask);}.cls-4{fill:#f7cf28;}.cls-5{fill:#fff;}</style><linearGradient id="linear-gradient" x1="495.98" y1="157.98" x2="57.4" y2="157.98" gradientUnits="userSpaceOnUse"><stop offset="0.03" stop-color="#fff"/><stop offset="0.22" stop-color="#c4c4c4"/><stop offset="0.5" stop-color="#717171"/><stop offset="0.74" stop-color="#343434"/><stop offset="0.91" stop-color="#0e0e0e"/><stop offset="0.99"/></linearGradient><linearGradient id="linear-gradient-2" x1="657.75" y1="250" x2="13.38" y2="250" gradientUnits="userSpaceOnUse"><stop offset="0" stop-color="#caecff"/><stop offset="0.07" stop-color="#c1e8ff"/><stop offset="0.18" stop-color="#a7ddfe"/><stop offset="0.33" stop-color="#7ecbfc"/><stop offset="0.49" stop-color="#45b2fa"/><stop offset="0.57" stop-color="#2aa6f9"/><stop offset="0.99" stop-color="#006daa"/></linearGradient><mask id="mask" x="-1.83" y="-92.23" width="497.81" height="500.42" maskUnits="userSpaceOnUse"><rect class="cls-1" x="-1.83" y="-92.23" width="497.81" height="500.42"/></mask></defs><title>144x144-studio-niv-shapira-he-expanded</title><g id="studio-niv-shapir-he-expanded"><rect class="cls-2" width="500" height="500"/><g class="cls-3"><path class="cls-4" d="M163.65,203.83a102.21,102.21,0,0,0,64.81-56.92l.12-.28,0-.09-30.25-13.17h0c-.52,1.19-1.07,2.36-1.64,3.5a69.24,69.24,0,0,1-56.91,37.9l1.81,4.13A54.09,54.09,0,0,0,163.65,203.83Z"/><path class="cls-4" d="M314.58,140l-24.46,14.8L276.92,185a69.19,69.19,0,0,1-60.83,41.45h-2.6v0h-22.2a69.19,69.19,0,0,1-47.52-18.88h0a69,69,0,0,1-15.95-22.64l-4.35-10h0l-10.32-23.6a76.51,76.51,0,0,0-15.59-23.07L74.09,151.4a43.38,43.38,0,0,1,8.85,13.11l14.68,33.6a102.22,102.22,0,0,0,93.67,61.29h22.2a102.2,102.2,0,0,0,93.67-61.29l13.22-30.24L314.58,140ZM303.71,171a6.84,6.84,0,1,1,6.84-6.84A6.84,6.84,0,0,1,303.71,171Z"/><path class="cls-4" d="M270.86,259.4h43.73a102.22,102.22,0,0,0,93.67-61.29l14.64-33.5a43.41,43.41,0,0,1,8.87-13.13l-23.52-23.15a76.36,76.36,0,0,0-15.6,23.07L378,184.9a69.23,69.23,0,0,1-63.43,41.5H308.1A117.24,117.24,0,0,1,270.86,259.4Z"/></g><path class="cls-5" d="M157.79,197.19a102.21,102.21,0,0,0,64.81-56.92l.12-.28,0-.09-30.25-13.17h0c-.52,1.19-1.07,2.36-1.64,3.51A69.23,69.23,0,0,1,134,168.14l1.81,4.14A54.12,54.12,0,0,0,157.79,197.19Z"/><path class="cls-5" d="M308.72,133.31l-24.46,14.8-13.2,30.2a69.2,69.2,0,0,1-60.83,41.46h-2.6v0h-22.2a69.19,69.19,0,0,1-47.52-18.88H138a69,69,0,0,1-16-22.65l-4.35-10h0l-10.32-23.6a76.34,76.34,0,0,0-15.59-23.06l-23.5,23.12a43.21,43.21,0,0,1,8.85,13.1l14.68,33.6a102.22,102.22,0,0,0,93.67,61.3h22.2a102.19,102.19,0,0,0,93.67-61.3l13.22-30.24-5.8-27.92Zm-10.87,31.05a6.84,6.84,0,1,1,6.84-6.84A6.84,6.84,0,0,1,297.85,164.36Z"/><path class="cls-5" d="M265,252.77h43.73a102.22,102.22,0,0,0,93.67-61.3L417,158a43.41,43.41,0,0,1,8.87-13.13l-23.52-23.15a76.15,76.15,0,0,0-15.59,23.07l-14.64,33.5a69.23,69.23,0,0,1-63.43,41.51h-6.49A117.49,117.49,0,0,1,265,252.77Z"/><path class="cls-5" d="M71.64,295.2l-.59-5.7h5.17l.63,5.7v21.69H71.64Z"/><path class="cls-5" d="M83.33,295.2l-.58-5.7h5.16l.64,5.7v7.41l0,3.07-5.17,1Z"/><path class="cls-5" d="M105.6,299.2a9.74,9.74,0,0,1,1.37-5.7H93.81v-4h21.73v4h-3.65a12.36,12.36,0,0,0-1.07,5.7v17.69H105.6Z"/><path class="cls-5" d="M121.29,295.2l-.58-5.7h5.16l.64,5.7v21.69h-5.22Z"/><path class="cls-5" d="M131.77,289.5H137l2.64,23.15q11.25-1.12,10.91-11.79v-1.37a6.6,6.6,0,0,0-1.41-4.34,5.7,5.7,0,0,0-4.19-1.9l-2.44-.14.39-4.1,2.88.15a11.18,11.18,0,0,1,7,2.7q2.64,2.42,2.83,7l.05,1.36q.28,8.47-5.24,12.6T135,317.38Z"/><path class="cls-5" d="M178.16,313.26q-5.46,3.78-15.3,4.12L160,293.5l-.48-4h14a9.19,9.19,0,0,1,7,2.68,10.82,10.82,0,0,1,2.66,7.31l.05,1.56Q183.62,309.48,178.16,313.26Zm-2.53-3.75c1.81-1.78,2.66-4.63,2.53-8.56v-1.31a7.06,7.06,0,0,0-1.32-4.44,4.35,4.35,0,0,0-3.65-1.7h-7.94l2.19,19.15C171.08,312.32,173.81,311.28,175.63,309.51Z"/><path class="cls-5" d="M89.62,375.37,79.39,359.82l-4.83,15.55h-5L75,358.6l1.36-3.46L71.83,348h5.31l4.1,6.58,4.09,6.14,1.22-4.24L89,348h5L88.4,365.23l6.77,10.14Z"/><path class="cls-5" d="M111.89,356.85a5.18,5.18,0,0,0-1.12-3.73A4.4,4.4,0,0,0,107.5,352h-9v-4h10.33a8.23,8.23,0,0,1,6.09,2.19q2.19,2.19,2.19,6.92v18.28h-5.21Z"/><path class="cls-5" d="M123.58,353.68,123,348h5.17l.63,5.7v7.41l-.05,3.07-5.17,1Z"/><path class="cls-5" d="M135.08,371.37h8.82a7.09,7.09,0,0,0,5.32-2q2-2,1.95-6.09V360a9.82,9.82,0,0,0-1.56-5.95,5.46,5.46,0,0,0-4.68-2.1h-4.39l-1.07,4.83a9.35,9.35,0,0,0-.24,1.9,3,3,0,0,0,.82,2.27,5.61,5.61,0,0,0,2.73,1.19l-.92,3.36q-3.81-.24-5.53-1.92a6.16,6.16,0,0,1-1.73-4.66,12.86,12.86,0,0,1,.24-2.58l1.9-8.38h9.31a9.43,9.43,0,0,1,7.6,3.21c1.82,2.15,2.73,5.15,2.73,9V363q0,6.09-3.12,9.21a11.19,11.19,0,0,1-8.28,3.12h-9.9Z"/><path class="cls-5" d="M182.26,370.86q-5.85,5.08-17.94,5L160.77,348h5l1.56,13a7.34,7.34,0,0,0,3.66-3.46,17.11,17.11,0,0,0,1.07-6.43v-3h5l-.05,2.92a16.49,16.49,0,0,1-2.14,8.6q-2,3.24-7,5.24l.78,6.63q7.37-.5,10.84-4.39t3.44-11.3l-.1-7.75H188l0,7.5Q188.1,365.77,182.26,370.86Z"/><path class="cls-5" d="M224.41,371.37v4H202.28v-4h13.55V356.85a5.18,5.18,0,0,0-1.12-3.73,4.4,4.4,0,0,0-3.27-1.15h-9.16v-4h10.48a8.23,8.23,0,0,1,6.09,2.19q2.19,2.19,2.19,6.92v14.28Z"/><path class="cls-5" d="M229.52,353.68l-.58-5.7h5.16l.64,5.7v7.41l-.05,3.07-5.17,1Z"/><path class="cls-5" d="M240,371.37h7.9v-15.3A4.61,4.61,0,0,0,247,353a3.94,3.94,0,0,0-2.49-1.19l-3.31-.49.68-3.95,5.07.73a6.78,6.78,0,0,1,4.51,2.47,8.5,8.5,0,0,1,1.58,5.38v19.4H240Z"/></g></svg>