<svg xmlns="http://www.w3.org/2000/svg" xmlns:xlink="http://www.w3.org/1999/xlink" viewBox="0 0 500 500"><defs><style>.cls-1{fill:url(#linear-gradient);}.cls-2{fill:url(#linear-gradient-2);}.cls-3{mask:url(#mask);}.cls-4{fill:#f7cf28;}.cls-5{fill:#fff;}</style><linearGradient id="linear-gradient" x1="495.98" y1="157.93" x2="57.4" y2="157.93" gradientUnits="userSpaceOnUse"><stop offset="0.03" stop-color="#fff"/><stop offset="0.22" stop-color="#c4c4c4"/><stop offset="0.5" stop-color="#717171"/><stop offset="0.74" stop-color="#343434"/><stop offset="0.91" stop-color="#0e0e0e"/><stop offset="0.99"/></linearGradient><linearGradient id="linear-gradient-2" x1="657.75" y1="250" x2="13.38" y2="250" gradientUnits="userSpaceOnUse"><stop offset="0" stop-color="#caecff"/><stop offset="0.07" stop-color="#c1e8ff"/><stop offset="0.18" stop-color="#a7ddfe"/><stop offset="0.33" stop-color="#7ecbfc"/><stop offset="0.49" stop-color="#45b2fa"/><stop offset="0.57" stop-color="#2aa6f9"/><stop offset="0.99" stop-color="#006daa"/></linearGradient><mask id="mask" x="-1.83" y="-92.28" width="497.81" height="500.42" maskUnits="userSpaceOnUse"><rect class="cls-1" x="-1.83" y="-92.28" width="497.81" height="500.42"/></mask></defs><title>144x144-studio-niv-shapira-en-expanded</title><g id="studio-niv-shapir-en-expanded"><rect class="cls-2" width="500" height="500"/><g class="cls-3"><path class="cls-4" d="M163.65,203.78a102.21,102.21,0,0,0,64.81-56.92l.12-.28,0-.09-30.25-13.17h0c-.52,1.19-1.07,2.36-1.64,3.51a69.23,69.23,0,0,1-56.91,37.89l1.81,4.14A54.12,54.12,0,0,0,163.65,203.78Z"/><path class="cls-4" d="M314.58,139.9l-24.46,14.8-13.2,30.2a69.2,69.2,0,0,1-60.83,41.46h-2.6v0h-22.2a69.2,69.2,0,0,1-47.52-18.89h0a69,69,0,0,1-15.95-22.65l-4.35-10h0L113.18,151.3a76.34,76.34,0,0,0-15.59-23.06l-23.5,23.12a43.21,43.21,0,0,1,8.85,13.1l14.68,33.6a102.22,102.22,0,0,0,93.67,61.3h22.2a102.19,102.19,0,0,0,93.67-61.3l13.22-30.24-5.8-27.92Zm-10.87,31a6.84,6.84,0,1,1,6.84-6.84A6.84,6.84,0,0,1,303.71,171Z"/><path class="cls-4" d="M270.86,259.36h43.73a102.22,102.22,0,0,0,93.67-61.3l14.64-33.5a43.41,43.41,0,0,1,8.87-13.13l-23.52-23.15a76.36,76.36,0,0,0-15.6,23.07L378,184.85a69.23,69.23,0,0,1-63.43,41.51H308.1A117.49,117.49,0,0,1,270.86,259.36Z"/></g><path class="cls-5" d="M157.79,197.14a102.18,102.18,0,0,0,64.81-56.92l.12-.27,0-.1-30.25-13.17h0c-.52,1.19-1.07,2.36-1.64,3.51A69.23,69.23,0,0,1,134,168.09l1.81,4.14A54.12,54.12,0,0,0,157.79,197.14Z"/><path class="cls-5" d="M308.72,133.26l-24.46,14.8-13.2,30.2a69.2,69.2,0,0,1-60.83,41.46h-2.6v.05h-22.2a69.2,69.2,0,0,1-47.52-18.89H138a69,69,0,0,1-16-22.65l-4.35-10h0l-10.32-23.61A76.47,76.47,0,0,0,91.73,121.6l-23.5,23.12a43.34,43.34,0,0,1,8.85,13.1l14.68,33.6a102.22,102.22,0,0,0,93.67,61.3h22.2a102.19,102.19,0,0,0,93.67-61.3l13.22-30.24-5.8-27.92Zm-10.87,31.06a6.85,6.85,0,1,1,6.84-6.84A6.84,6.84,0,0,1,297.85,164.32Z"/><path class="cls-5" d="M265,252.72h43.73a102.22,102.22,0,0,0,93.67-61.3L417,157.92a43.41,43.41,0,0,1,8.87-13.13l-23.52-23.14a76,76,0,0,0-15.59,23.06l-14.64,33.5a69.22,69.22,0,0,1-63.43,41.51h-6.49A117.37,117.37,0,0,1,265,252.72Z"/><path class="cls-5" d="M72.42,287.42h5.11l10.63,18.86L91.52,313h.19c-.06-1-.13-1.78-.19-2.2s-.12-1.44-.24-3.26-.2-3.53-.2-5.12v-15h4.73v31.92H90.69L80.07,300.43l-3.36-6.67h-.2l.2,2.43.24,3.17c.13,1.72.19,3.33.19,4.83v15.15H72.42Z"/><path class="cls-5" d="M104.07,290.2a2.86,2.86,0,0,1-.86-2.15,2.79,2.79,0,0,1,.86-2.09,3.24,3.24,0,0,1,4.33,0,2.79,2.79,0,0,1,.86,2.09,2.86,2.86,0,0,1-.86,2.15,3.24,3.24,0,0,1-4.33,0Zm-.32,5.31h4.92v23.83h-4.92Z"/><path class="cls-5" d="M113,295.51h5l4.09,12.87,2.1,7.11h.19l2.1-7.11,4.09-12.87h4.78l-8.24,23.83h-5.7Z"/><path class="cls-5" d="M152.8,318.68a15.58,15.58,0,0,1-5.14-3.48l2.92-3.41a13.47,13.47,0,0,0,4,2.77,10.68,10.68,0,0,0,4.53,1,7.13,7.13,0,0,0,4.43-1.24,4,4,0,0,0,1.61-3.34,3.94,3.94,0,0,0-.61-2.27,5,5,0,0,0-1.61-1.49,23.74,23.74,0,0,0-2.9-1.36l-4.43-1.95q-6.48-2.69-6.48-8.33a7.85,7.85,0,0,1,1.34-4.49,9.11,9.11,0,0,1,3.73-3.14,12.25,12.25,0,0,1,5.36-1.14,13.4,13.4,0,0,1,5.31,1.07,13,13,0,0,1,4.33,2.92L166.61,294a10.49,10.49,0,0,0-7.06-2.83,6.37,6.37,0,0,0-4,1.12,3.61,3.61,0,0,0-1.46,3,3.32,3.32,0,0,0,.7,2.14,5.43,5.43,0,0,0,1.71,1.41c.66.36,1.58.78,2.75,1.27l4.44,1.9a12,12,0,0,1,4.8,3.29,8,8,0,0,1,1.68,5.29,8.5,8.5,0,0,1-1.37,4.7,9.52,9.52,0,0,1-3.89,3.36,13.37,13.37,0,0,1-6,1.25A15.77,15.77,0,0,1,152.8,318.68Z"/><path class="cls-5" d="M175.77,284.79h4.92V294l-.19,4.73a17.93,17.93,0,0,1,3.68-2.76,8.4,8.4,0,0,1,4.07-1q7.31,0,7.31,9.4v15h-4.92V305a8,8,0,0,0-.95-4.43,3.52,3.52,0,0,0-3.1-1.36,5.51,5.51,0,0,0-2.87.75,16.34,16.34,0,0,0-3,2.51v16.91h-4.92Z"/><path class="cls-5" d="M203.26,318.05a6.67,6.67,0,0,1-1.95-5,6.56,6.56,0,0,1,3.41-5.93q3.41-2.07,10.87-2.89-.1-5.26-4.59-5.27a13.24,13.24,0,0,0-6.87,2.44L202.28,298a17.82,17.82,0,0,1,9.6-3.11q4.34,0,6.48,2.6c1.43,1.74,2.15,4.24,2.15,7.48v14.33h-4l-.39-2.73h-.14q-3.94,3.31-7.61,3.32A7,7,0,0,1,203.26,318.05Zm9.4-2.71a14.45,14.45,0,0,0,2.93-2.14v-5.9c-3.45.43-5.89,1.08-7.34,1.95a3.92,3.92,0,0,0-2.17,3.41,3,3,0,0,0,1,2.51,4.11,4.11,0,0,0,2.73.86A6,6,0,0,0,212.66,315.34Z"/><path class="cls-5" d="M227.57,295.51h4.05l.39,2.63h.14q3.85-3.21,7.36-3.21a8.18,8.18,0,0,1,7,3.26c1.64,2.18,2.46,5.13,2.46,8.87a15.4,15.4,0,0,1-1.42,6.85,11,11,0,0,1-3.75,4.46,9,9,0,0,1-5.07,1.56,10,10,0,0,1-6.33-2.69l.14,4.05V329h-4.92Zm14.57,18a10.61,10.61,0,0,0,1.71-6.41q0-8.08-5.65-8.09-2.64,0-5.71,2.92v11.7a8.08,8.08,0,0,0,5.22,2.19A5.25,5.25,0,0,0,242.14,313.52Z"/><path class="cls-5" d="M255.18,290.2a2.85,2.85,0,0,1-.85-2.15,2.78,2.78,0,0,1,.85-2.09,3.25,3.25,0,0,1,4.34,0,2.82,2.82,0,0,1,.85,2.09,2.89,2.89,0,0,1-.85,2.15,3.25,3.25,0,0,1-4.34,0Zm-.32,5.31h4.92v23.83h-4.92Z"/><path class="cls-5" d="M267.29,295.51h4l.39,4.29h.15a10.72,10.72,0,0,1,3-3.58,6.53,6.53,0,0,1,6.36-.81l-.87,4.29a8.53,8.53,0,0,0-2.39-.39,5.11,5.11,0,0,0-3.17,1.24,9.29,9.29,0,0,0-2.63,3.93v14.86h-4.92Z"/><path class="cls-5" d="M284.3,318.05a6.67,6.67,0,0,1-1.95-5,6.56,6.56,0,0,1,3.41-5.93q3.4-2.07,10.86-2.89-.09-5.26-4.58-5.27a13.24,13.24,0,0,0-6.87,2.44L283.32,298a17.82,17.82,0,0,1,9.6-3.11q4.33,0,6.48,2.6c1.43,1.74,2.15,4.24,2.15,7.48v14.33H297.5l-.39-2.73H297c-2.64,2.21-5.17,3.32-7.61,3.32A7,7,0,0,1,284.3,318.05Zm9.4-2.71a14.15,14.15,0,0,0,2.92-2.14v-5.9q-5.16.65-7.33,1.95a3.91,3.91,0,0,0-2.17,3.41,3,3,0,0,0,1,2.51,4.1,4.1,0,0,0,2.72.86A6,6,0,0,0,293.7,315.34Z"/><path class="cls-5" d="M75.32,377.16a15.58,15.58,0,0,1-5.14-3.48l2.92-3.42a13.5,13.5,0,0,0,4,2.78,10.83,10.83,0,0,0,4.53,1,7.07,7.07,0,0,0,4.43-1.25,4,4,0,0,0,1.61-3.34,3.93,3.93,0,0,0-.61-2.26,4.91,4.91,0,0,0-1.61-1.49,23.74,23.74,0,0,0-2.9-1.36l-4.43-1.95q-6.48-2.69-6.48-8.33A7.85,7.85,0,0,1,73,349.6a9,9,0,0,1,3.73-3.14,12.26,12.26,0,0,1,5.36-1.15,13.41,13.41,0,0,1,5.31,1.08,13,13,0,0,1,4.33,2.92l-2.58,3.17a10.44,10.44,0,0,0-7.06-2.83,6.31,6.31,0,0,0-3.95,1.12,3.6,3.6,0,0,0-1.46,3,3.33,3.33,0,0,0,.7,2.15,5.57,5.57,0,0,0,1.71,1.41c.66.36,1.58.78,2.75,1.27l4.44,1.9a11.85,11.85,0,0,1,4.8,3.29,8,8,0,0,1,1.68,5.28,8.53,8.53,0,0,1-1.37,4.71,9.52,9.52,0,0,1-3.89,3.36,13.37,13.37,0,0,1-6,1.24A15.76,15.76,0,0,1,75.32,377.16Z"/><path class="cls-5" d="M97.85,370.07V357.94H94.4v-3.71l3.7-.24.58-6.58h4.1V354H109v3.95h-6.23v12.13a5.45,5.45,0,0,0,.82,3.29,3.17,3.17,0,0,0,2.69,1.1,7.15,7.15,0,0,0,2.58-.59l.87,3.65a14.84,14.84,0,0,1-4.67.88Q97.86,378.4,97.85,370.07Z"/><path class="cls-5" d="M113.89,369V354h4.92v14.37a8,8,0,0,0,1,4.44,3.49,3.49,0,0,0,3.09,1.36,5.18,5.18,0,0,0,2.93-.83,13.05,13.05,0,0,0,2.82-2.77V354h4.93v23.83h-4.05l-.39-3.61h-.15a14,14,0,0,1-3.58,3.12,8.08,8.08,0,0,1-4.16,1.07Q113.88,378.4,113.89,369Z"/><path class="cls-5" d="M142.13,375.09q-2.65-3.31-2.66-9.16a14.75,14.75,0,0,1,1.41-6.61,10.9,10.9,0,0,1,3.76-4.38,8.93,8.93,0,0,1,5-1.54,8.12,8.12,0,0,1,3.36.66,13.33,13.33,0,0,1,3.07,2l-.2-3.94v-8.87h4.92v34.55h-4l-.39-2.68h-.15A12.5,12.5,0,0,1,153,377.5a8.2,8.2,0,0,1-3.7.9A8.67,8.67,0,0,1,142.13,375.09Zm11.13-1.49a9.57,9.57,0,0,0,2.63-2.21v-11.7a7.73,7.73,0,0,0-5.26-2.19,5.07,5.07,0,0,0-3.09,1,6.86,6.86,0,0,0-2.2,2.92,11.46,11.46,0,0,0-.8,4.44,10.83,10.83,0,0,0,1.53,6.24,5,5,0,0,0,4.37,2.19A5.9,5.9,0,0,0,153.26,373.6Z"/><path class="cls-5" d="M168.64,348.68a2.88,2.88,0,0,1-.86-2.15,2.79,2.79,0,0,1,.86-2.09,3.24,3.24,0,0,1,4.33,0,2.79,2.79,0,0,1,.86,2.09,2.88,2.88,0,0,1-.86,2.15,3.27,3.27,0,0,1-4.33,0Zm-.32,5.31h4.92v23.83h-4.92Z"/><path class="cls-5" d="M184.74,376.89a10.93,10.93,0,0,1-4.12-4.34,13.68,13.68,0,0,1-1.53-6.62,13.84,13.84,0,0,1,1.53-6.68,11.08,11.08,0,0,1,4.1-4.34,11.07,11.07,0,0,1,11.16,0,11.06,11.06,0,0,1,4.09,4.34,13.84,13.84,0,0,1,1.53,6.68,13.68,13.68,0,0,1-1.53,6.62,10.94,10.94,0,0,1-15.23,4.34Zm10-4.85a12.07,12.07,0,0,0,0-12.25,5.42,5.42,0,0,0-8.92,0,12.1,12.1,0,0,0,0,12.25,5.5,5.5,0,0,0,9,0Z"/></g></svg>